<?xml version="1.0" encoding="UTF-8"?>
<svg width="752pt" height="752pt" version="1.1" viewBox="0 0 752 752" xmlns="http://www.w3.org/2000/svg">
 <g fill="#676767">
  <path d="m384.05 404.25v118.52c0 8.5117 6.8828 15.395 15.383 15.395 8.5039 0 15.262-6.7617 15.262-15.27l0.019532-170.8 15.297 43.441c2.3008 6.3594 9.3242 9.6914 15.707 7.4023 6.3711-2.293 9.707-9.3164 7.4219-15.691l-36.914-102.95c-2.4609-6.8984-8.9922-11.422-17.012-11.531h-46.438c-8.0078 0.10547-14.543 4.6328-17.012 11.531l-36.906 102.96c-2.2812 6.3789 1.0508 13.398 7.4258 15.691 6.3867 2.2812 13.406-1.0469 15.715-7.4023l15.297-43.441 0.046875 170.52c0 8.5039 6.7266 15.559 15.227 15.559 8.4961 0 15.383-6.8867 15.383-15.395l-0.003907-118.53z"/>
  <path d="m399.43 595.93c-8.0352 0-15.906-1.293-23.434-3.8398-7.5195 2.543-15.391 3.8398-23.43 3.8398-40.246 0-72.988-32.891-72.988-73.316l-0.019531-68.367c-31.809-15.602-47.18-52.672-35.086-86.457l36.914-102.98c2.7344-7.625 6.6094-14.668 11.555-20.961-0.085937-1.5391-0.12891-3.0742-0.12891-4.5938 0-45.871 37.312-83.184 83.18-83.184 45.867 0 83.184 37.316 83.184 83.184 0 1.5312-0.046875 3.0742-0.12891 4.6094 4.9492 6.2969 8.832 13.352 11.57 21l36.898 102.89c12.109 33.836-3.25 70.93-35.055 86.5l-0.019532 68.664c0.003906 40.262-32.75 73.012-73.012 73.012zm-23.43-17.754c0.80859 0 1.6211 0.14062 2.3867 0.4375 6.7109 2.5352 13.789 3.8281 21.047 3.8281 32.82 0 59.52-26.707 59.52-59.52l0.015625-73.02c0-2.7344 1.6523-5.1992 4.1758-6.2383 27.949-11.527 41.871-42.863 31.672-71.352l-36.898-102.89c-2.5039-7.0156-6.1914-13.402-10.934-18.992-1.1641-1.3789-1.7383-3.168-1.5742-4.9688 0.17969-2.0508 0.27344-4.1328 0.27344-6.1992 0-38.426-31.262-69.688-69.684-69.688s-69.684 31.266-69.684 69.688c0 2.043 0.09375 4.1211 0.28125 6.1797 0.16016 1.8008-0.40625 3.5898-1.5781 4.9688-4.7422 5.5938-8.4141 11.973-10.922 18.961l-36.918 102.98c-10.176 28.43 3.75 59.762 31.707 71.312 2.5234 1.0508 4.1719 3.5078 4.1719 6.2422l0.019531 72.715c0 32.984 26.688 59.824 59.492 59.824 7.2539 0 14.336-1.2891 21.047-3.8281 0.76562-0.28906 1.5742-0.4375 2.3828-0.4375z"/>
  <path d="m399.43 572.68c-8.25 0-16.242-2.0078-23.434-5.8477-7.1797 3.8438-15.172 5.8477-23.43 5.8477-27.426 0-49.73-22.457-49.73-50.062l-0.023438-85.066c-2.7656-0.46484-5.4922-1.1641-8.1562-2.1172-24.281-8.7383-36.965-35.566-28.293-59.805l36.914-102.97c2.918-8.1484 7.7383-15.305 14.109-20.992-0.875-4.0859-1.3164-8.2461-1.3164-12.414 0.003907-33.043 26.891-59.922 59.93-59.922 33.043 0 59.926 26.887 59.926 59.926 0 4.1719-0.44141 8.332-1.3164 12.43 6.3711 5.6836 11.195 12.844 14.113 21.008l36.906 102.91c8.6797 24.258-3.9844 51.086-28.227 59.801-2.6758 0.96094-5.4258 1.6758-8.1914 2.1367l-0.015626 85.367c-0.003906 27.438-22.32 49.77-49.766 49.77zm-23.43-25.398c1.8086 0 3.6172 0.54297 5.1719 1.6367 5.3711 3.7695 11.684 5.7617 18.258 5.7617 17.512 0 31.77-14.254 31.77-31.77l0.015625-93.766c0-2.4375 0.98047-4.7578 2.7266-6.4492 1.7422-1.6992 4.0859-2.6719 6.5312-2.543l1.1133 0.019531c3.3047 0 6.5859-0.57422 9.7422-1.6992 14.902-5.3672 22.703-21.875 17.355-36.797l-36.906-102.92c-2.3789-6.6602-6.6953-12.281-12.496-16.266-3.2852-2.2656-4.6914-6.4219-3.4531-10.215 1.3906-4.2539 2.0977-8.6328 2.0977-13.023 0-23.121-18.812-41.93-41.93-41.93-23.117 0-41.926 18.812-41.926 41.93 0 4.3789 0.70703 8.7578 2.0938 13 1.2422 3.7891-0.16016 7.9414-3.4414 10.207-5.8008 4-10.121 9.6289-12.496 16.266l-36.91 102.97c-5.332 14.902 2.4805 31.418 17.422 36.797 3.1133 1.1133 6.3711 1.6758 9.6797 1.6758l1.0508-0.019531c2.4453-0.12891 4.8203 0.80859 6.582 2.5039 1.7617 1.6914 2.7617 4.0391 2.7617 6.4805l0.023438 93.469c0 17.684 14.234 32.066 31.734 32.066 6.5742 0 12.887-1.9922 18.258-5.7617 1.5508-1.0859 3.3633-1.6289 5.1719-1.6289z"/>
  <path d="m376 264.67c14.031 0 25.426-11.379 25.426-25.418 0-14.047-11.391-25.422-25.426-25.422s-25.418 11.375-25.418 25.422c-0.003906 14.039 11.379 25.418 25.418 25.418z"/>
 </g>
</svg>
