<?xml version="1.0" encoding="UTF-8"?>
<svg width="752pt" height="752pt" version="1.1" viewBox="0 0 752 752" xmlns="http://www.w3.org/2000/svg">
 <path d="m533.86 267.47c2.6641 0 5.1289-1.0859 7.0039-2.8594l39.465-39.465c3.8477-3.8477 3.8477-10.062 0-13.91l-39.465-39.465c-1.875-1.8789-4.3398-2.9648-7.0039-2.9648h-177.6c-5.4258 0-9.8672 4.4414-9.8672 9.8672v69.062h-128.26c-2.6641 0-5.1289 1.0859-7.0039 2.8594l-39.465 39.465c-3.8477 3.8477-3.8477 10.062 0 13.91l39.465 39.465c1.875 1.8789 4.3398 2.9648 7.0039 2.9648h128.26v59.199h-128.26c-2.6641 0-5.1289 1.0859-7.0039 2.8594l-39.465 39.465c-3.8477 3.8477-3.8477 10.062 0 13.91l39.465 39.465c1.875 1.875 4.3398 2.9609 7.0039 2.9609h128.26v59.199h-49.332c-5.4258 0-9.8672 4.4414-9.8672 9.8672s4.4414 9.8672 9.8672 9.8672h157.86c5.4258 0 9.8672-4.4414 9.8672-9.8672s-4.4414-9.8672-9.8672-9.8672h-49.332v-138.13h128.26c2.6641 0 5.1289-1.0859 7.0039-2.8594l39.465-39.465c3.8477-3.8477 3.8477-10.062 0-13.91l-39.465-39.465c-1.875-1.8789-4.3398-2.9609-7.0039-2.9609h-128.26v-59.199zm-128.26-78.93h124.21l29.598 29.598-29.598 29.598h-124.21zm-59.199 295.99h-124.21l-29.598-29.598 29.598-29.598 124.21-0.003907zm0-157.86h-124.21l-29.598-29.598 29.598-29.598 124.21-0.003906zm39.465 236.79h-19.734l0.003907-374.92h19.734zm143.95-217.06 29.598 29.598-29.598 29.598-124.21 0.003906v-59.199z" fill="#676767"/>
</svg>
