<?xml version="1.0" encoding="UTF-8"?>
<svg width="752pt" height="752pt" version="1.1" viewBox="0 0 752 752" xmlns="http://www.w3.org/2000/svg">
 <g fill="#676767">
  <path d="m554.78 468.25c11.348-10.754 18.551-25.945 18.551-42.918 0-32.656-26.539-59.199-59.199-59.199-32.656 0-59.199 26.539-59.199 59.199 0 16.969 7.2031 32.164 18.547 42.918-17.559 12.828-28.41 33.25-28.41 55.746 0-22.496-10.852-42.918-28.414-55.746 11.344-10.754 18.547-25.945 18.547-42.918 0-32.656-26.539-59.199-59.199-59.199-32.656 0-59.199 26.539-59.199 59.199 0 16.969 7.2031 32.164 18.547 42.918-17.559 12.828-28.41 33.25-28.41 55.746 0-22.496-10.852-42.918-28.414-55.746 11.344-10.754 18.547-25.945 18.547-42.918 0-32.656-26.539-59.199-59.199-59.199-32.656 0-59.199 26.539-59.199 59.199 0 16.969 7.2031 32.164 18.547 42.918-17.555 12.828-28.41 33.25-28.41 55.746v39.465c0 5.4258 4.4414 9.8672 9.8672 9.8672h118.39c5.4258 0 9.8672-4.4414 9.8672-9.8672 0 5.4258 4.4414 9.8672 9.8672 9.8672h118.39c5.4258 0 9.8672-4.4414 9.8672-9.8672 0 5.4258 4.4414 9.8672 9.8672 9.8672h118.39c5.4258 0 9.8672-4.4414 9.8672-9.8672v-39.465c-0.003906-22.496-10.855-42.918-28.418-55.746zm-316.9-82.383c21.805 0 39.465 17.66 39.465 39.465 0 21.805-17.66 39.465-39.465 39.465s-39.465-17.66-39.465-39.465c0-21.805 17.66-39.465 39.465-39.465zm49.328 167.73h-98.66v-29.598c0-18.844 10.559-35.52 27.035-43.906 6.9023 2.8633 14.402 4.4414 22.297 4.4414s15.391-1.5781 22.297-4.4414c16.477 8.3867 27.031 25.062 27.031 43.906zm88.797-167.73c21.805 0 39.465 17.66 39.465 39.465 0 21.805-17.66 39.465-39.465 39.465s-39.465-17.66-39.465-39.465c0-21.805 17.66-39.465 39.465-39.465zm49.332 167.73h-98.66v-29.598c0-18.844 10.559-35.52 27.035-43.906 6.9023 2.8633 14.402 4.4414 22.293 4.4414 7.8945 0 15.391-1.5781 22.297-4.4414 16.48 8.3867 27.035 25.062 27.035 43.906zm88.797-167.73c21.805 0 39.465 17.66 39.465 39.465 0 21.805-17.66 39.465-39.465 39.465-21.805 0-39.465-17.66-39.465-39.465 0-21.805 17.66-39.465 39.465-39.465zm49.332 167.73h-98.664v-29.598c0-18.844 10.559-35.52 27.035-43.906 6.9062 2.8633 14.402 4.4414 22.297 4.4414 7.8945 0 15.391-1.5781 22.297-4.4414 16.477 8.3867 27.035 25.062 27.035 43.906z"/>
  <path d="m326.67 267.47c0-22.496-29.699-39.465-69.062-39.465-39.367 0-69.062 16.969-69.062 39.465s29.699 39.465 69.062 39.465c6.4141 0 12.824-0.49219 19.043-1.4805l26.539 10.656c1.2812 0.49219 2.5625 0.69141 3.7461 0.69141 2.9609 0 5.7227-1.2812 7.6953-3.6523 2.7617-3.3555 2.9609-8.0898 0.59375-11.641l-5.1289-7.793c10.652-7.0078 16.574-16.184 16.574-26.246zm-34.828 13.516c-2.6641 1.1836-4.7344 3.4531-5.625 6.2148-0.097656 0.19922-0.097656 0.49219-0.19922 0.69141l-4.6367-1.875c-1.1836-0.49219-2.4648-0.69141-3.6523-0.69141-0.59375 0-1.1836 0-1.7773 0.19922-5.9141 1.0859-12.133 1.6758-18.348 1.6758-30.094 0-49.332-11.641-49.332-19.734 0-8.0898 19.238-19.734 49.332-19.734s49.332 11.641 49.332 19.734c0 4.3438-5.918 9.6719-15.094 13.52z"/>
  <path d="m277.34 257.61h-39.465c-5.4258 0-9.8672 4.4414-9.8672 9.8672 0 5.4258 4.4414 9.8672 9.8672 9.8672h39.465c5.4258 0 9.8672-4.4414 9.8672-9.8672-0.003906-5.4258-4.4414-9.8672-9.8672-9.8672z"/>
  <path d="m407.77 362.48c1.9727 2.3672 4.8359 3.6523 7.6953 3.6523 1.1836 0 2.4648-0.19922 3.6523-0.69141l26.539-10.656c6.3164 0.98828 12.73 1.4805 19.141 1.4805 39.367 0 69.062-16.969 69.062-39.465 0-22.496-29.699-39.465-69.062-39.465-39.367 0-69.062 16.969-69.062 39.465 0 10.062 5.918 19.238 16.676 26.246l-5.1289 7.793c-2.4688 3.5508-2.1758 8.2852 0.48828 11.641zm57.027-65.414c30.094 0 49.332 11.641 49.332 19.734 0 8.0898-19.238 19.734-49.332 19.734-6.2148 0-12.43-0.59375-18.352-1.6758-1.875-0.39453-3.75-0.097656-5.4258 0.49219l-4.6367 1.875c0-0.19922-0.097656-0.49219-0.19922-0.69141-0.88672-2.8594-2.8594-5.1289-5.625-6.2148-9.1719-3.8516-15.094-9.1797-15.094-13.52 0-8.0898 19.242-19.734 49.332-19.734z"/>
  <path d="m445.07 326.67h39.465c5.4258 0 9.8672-4.4414 9.8672-9.8672 0-5.4258-4.4414-9.8672-9.8672-9.8672h-39.465c-5.4258 0-9.8672 4.4414-9.8672 9.8672 0 5.4258 4.4414 9.8672 9.8672 9.8672z"/>
  <path d="m415.46 178.68c-39.367 0-69.062 16.969-69.062 39.465 0 10.062 5.918 19.238 16.676 26.246l-5.1289 7.793c-2.3672 3.5508-2.1719 8.2891 0.59375 11.641 1.8711 2.3711 4.7305 3.6523 7.5938 3.6523 1.1836 0 2.4648-0.19922 3.6523-0.69141l26.539-10.656c6.3125 0.98828 12.727 1.4805 19.137 1.4805 39.367 0 69.062-16.969 69.062-39.465 0.003906-22.496-29.695-39.465-69.062-39.465zm0 59.199c-6.2148 0-12.43-0.59375-18.352-1.6758-1.875-0.39453-3.75-0.097657-5.4258 0.49219l-4.6367 1.875c0-0.19922-0.097656-0.49219-0.19922-0.69141-0.88672-2.8594-2.8594-5.1289-5.625-6.2148-9.1719-3.8516-15.09-9.1797-15.09-13.52 0-8.0898 19.238-19.734 49.332-19.734s49.332 11.641 49.332 19.734c-0.003906 8.0898-19.242 19.734-49.336 19.734z"/>
  <path d="m435.2 208.27h-39.465c-5.4258 0-9.8672 4.4414-9.8672 9.8672s4.4414 9.8672 9.8672 9.8672h39.465c5.4258 0 9.8672-4.4414 9.8672-9.8672s-4.4414-9.8672-9.8672-9.8672z"/>
 </g>
</svg>
