<?xml version="1.0" encoding="UTF-8"?>
<svg width="752pt" height="752pt" version="1.1" viewBox="0 0 752 752" xmlns="http://www.w3.org/2000/svg">
 <g fill="#676767">
  <path d="m496.2 584.54c-11.656 0-29.273-6.1523-48.422-16.836-15.355-8.6016-38.758-24.094-63.176-49.207-26.176-26.918-46.754-57.855-61.277-91.988-17.391-40.977-25.574-85.742-24.234-133.1v-0.27734c2.1289-35.242 15.445-65.855 38.477-88.613 11.098-10.961 24.141-19.703 38.711-25.945 14.707-6.2891 30.617-9.9414 47.359-10.82 39.957-2.1289 71.637 7.6328 94.16 28.996 12.023 11.379 21.09 25.898 27.055 43.148 5.2734 15.402 7.9531 32.699 7.9531 51.383 0 13.688-2.3594 27.148-7.0742 40.051l-17.391-6.3359c3.9766-10.867 5.9648-22.246 5.9648-33.762 0-24.328-5.0859-58.18-29.23-81.121-18.684-17.715-45.738-25.762-80.426-23.91-60.262 3.1914-103.27 46.527-107.06 107.85-2.8672 103.6 42.039 172.18 80.285 211.49 22.895 23.539 44.676 37.969 58.965 45.969 19.102 10.684 33.16 14.477 39.402 14.477 14.43 0 25.898-4.7188 33.16-13.688 8.418-10.359 10.961-25.945 7.168-43.891l18.082-3.793c4.9492 23.492 1.0625 44.582-10.914 59.383-10.906 13.461-27.324 20.539-47.535 20.539z"/>
  <path d="m353.11 413.05c-20.812-54.062-13.504-104.15-13.18-106.28l0.09375-0.55469c11.188-51.891 50.129-102.49 111.82-98.648 17.02 1.0625 32.789 9.8516 43.242 24.094 13.367 18.27 17.066 43.012 10.406 69.695-0.46094 1.8945-8.2773 32.789-29.598 54.062l-13.09-13.09c17.758-17.758 24.648-45.137 24.695-45.414v-0.046874c5.3203-21.273 2.6836-40.512-7.3984-54.297-7.3086-9.9414-17.758-15.816-29.461-16.559-50.641-3.1445-82.922 39.727-92.543 83.754-0.50781 3.6992-6.1055 49.117 12.211 96.613z"/>
  <path d="m371.19 448.52c-3.4688-5.3203-6.7969-11.055-9.8047-16.973l16.465-8.4648c2.7305 5.3633 5.7344 10.5 8.8789 15.309z"/>
  <path d="m452.73 518.59c-1.4805-0.50781-36.305-13.09-70.16-54.434l14.336-11.699c30.293 37.043 61.648 48.605 61.973 48.699z"/>
  <path d="m314.95 527.42c-20.719-5.5039-38.109-18.777-48.84-37.32-10.777-18.59-13.645-40.281-8.1406-61l17.852 4.7617c-4.2539 16-2.0352 32.652 6.2422 46.988 8.2773 14.289 21.645 24.512 37.602 28.719z"/>
  <path d="m300.71 580.93c-35.055-9.3438-64.332-31.773-82.508-63.129s-23.031-67.938-13.688-103l17.898 4.7617c-8.0469 30.246-3.8398 61.879 11.84 88.934 15.629 27.152 40.926 46.484 71.172 54.578z"/>
  <path d="m520.62 485.75c-1.6172 0-2.8672-0.046875-3.6992-0.14062-18.73-0.09375-57.855-6.0586-87.457-28.027-16-11.887-29.043-30.199-35.656-50.273-7.5859-22.895-6.1523-46.156 4.0703-65.488 18.961-35.887 45.324-48.098 64.055-51.984 20.441-4.2539 36.445 0.18359 37.09 0.37109l-2.543 8.8789-2.4961 8.9258c-0.14062-0.046875-12.949-3.4688-29.09 0.09375-21.273 4.7188-38.34 18.961-50.734 42.363-17.066 32.281 0.37109 73.027 26.27 92.266 26.031 19.289 61.645 24.375 76.859 24.375h0.37109l0.37109 0.046875c5.5508 0.41797 13.367-0.78516 15.125-2.9609 0.50781-0.64844 0.18359-2.4961-0.27734-4.0234-3.2852-10.453-7.8164-12.535-14.059-15.445-4.5781-2.1289-10.223-4.7617-14.246-10.82-4.0234-6.1055-5.5039-14.336-4.6719-25.992 0.41797-5.6406 0.37109-15.492-4.3008-18.359-6.2891-3.8867-21.969 1.9414-30.523 7.0742l-9.5312-15.91c3.1445-1.8945 31.355-18.27 49.762-7.0312 9.9414 6.1055 14.336 18.035 13.09 35.473-0.64844 8.9258 0.55469 12.812 1.6641 14.477 1.0625 1.6172 3.0078 2.543 6.6133 4.2539 7.2148 3.375 18.176 8.4648 23.91 26.684 3.2852 10.359 0.23047 17.203-2.9141 21.137-7.0742 8.7422-20.07 10.039-27.051 10.039z"/>
 </g>
</svg>
