<?xml version="1.0" encoding="UTF-8"?>
<svg width="752pt" height="752pt" version="1.1" viewBox="0 0 752 752" xmlns="http://www.w3.org/2000/svg">
 <g fill="#676767">
  <path d="m325.13 304.41c13.344 3.6562 30.957 5.6719 49.59 5.6719 18.641 0 36.246-2.0156 49.594-5.6719 16.723-4.5898 25.199-11.395 25.199-20.234 0-8.8398-8.4766-15.652-25.199-20.234-13.34-3.6562-30.953-5.6719-49.594-5.6719-18.637 0-36.242 2.0156-49.59 5.6719-16.719 4.5859-25.195 11.395-25.195 20.234 0.003906 8.8398 8.4805 15.645 25.195 20.234zm7.3281-26.984c11.664-2.7617 26.672-4.2852 42.266-4.2852 15.602 0 30.609 1.5195 42.277 4.2852 10.461 2.4727 15.301 5.2383 17.062 6.75-1.7578 1.5117-6.6016 4.2734-17.062 6.75-11.668 2.7617-26.676 4.2852-42.277 4.2852-15.59 0-30.602-1.5195-42.266-4.2852-10.461-2.4766-15.312-5.2344-17.062-6.75 1.75-1.5117 6.5977-4.2773 17.062-6.75z"/>
  <path d="m559.52 358.62-3.1406-7.8789c-0.33203-2.7656-1.1094-5.1523-1.7773-6.8047 0.93359-1.6328 1.5664-3.3359 1.8945-5.1016 1.6719-9.0352-5.4492-15.785-5.7539-16.07l-1.3867-1.293c-0.29297-7.293-5.7266-12.441-5.9922-12.688l-5.0898-4.7422-1.6797 6.75c-2.5234 10.078-11.102 12.844-31.996 18.664-9.1211 2.543-20.473 5.707-33.598 10.512-6.3242 2.3125-11.969 4.9922-16.863 7.9844-1.4297-1.1758-2.9023-2.3125-4.4336-3.4297-19.855-14.434-46.133-22.387-73.988-22.387s-54.129 7.9531-73.988 22.387c-2.0352 1.4766-3.9727 3.0117-5.8242 4.5859-5.3086-3.4609-11.57-6.5273-18.715-9.1406-13.117-4.8086-24.469-7.9688-33.586-10.512-20.895-5.8203-29.473-8.5859-31.992-18.664l-1.6875-6.75-5.0898 4.7422c-0.26563 0.24609-5.6914 5.3984-5.9922 12.688l-1.3828 1.293c-0.30469 0.28516-7.4258 7.0312-5.75 16.07 0.32812 1.7656 0.96094 3.4648 1.8945 5.1016-0.66797 1.6523-1.4492 4.0391-1.7812 6.8047l-3.1367 7.8789c-0.14062 0.35547-3.4062 8.8086 1.5859 18.082 2.4727 4.5898 6.4492 8.5117 11.902 11.73l0.71484 2.9883c3.4727 14.52 22.43 20.145 40.762 25.582 14.895 4.4219 30.289 8.9883 34.613 17.492 2.3164 4.5703 5.2188 9.2148 9.4141 10.73 4.043 4.4883 8.7383 8.6992 14.055 12.562 19.863 14.445 46.141 22.395 73.992 22.395 27.852 0 54.129-7.9531 73.988-22.391 11.438-8.3164 20.02-18.238 25.379-29.105 6.8516-5.0391 18.301-8.3672 29.461-11.684 18.336-5.4375 37.285-11.062 40.762-25.582l0.71484-2.9883c5.4414-3.2188 9.4297-7.1328 11.902-11.73 4.9883-9.2734 1.7266-17.727 1.5898-18.082zm-13.367-16.902c-2.4961 2.918-6.9336 5.7031-13.133 8.2031-7.5508 3.0508-16.215 5.5273-24.602 7.9336-12.199 3.4922-24.734 7.0859-34.953 12.672-0.80469-1.4453-1.6758-2.8594-2.6016-4.2656 3.2031-1.6641 6.668-3.207 10.387-4.6094 13.203-4.9688 24.641-8.1641 33.844-10.727 15.156-4.2344 26.398-7.3789 32.562-15.18zm1.3828 15.875c-1.6367 3.7969-5.8789 6.5586-12.594 8.2031-6.1328 1.4961-13.199 3.5742-24.91 7.0078-5.5117 1.625-11.766 3.4609-19.531 5.7148-3.9062 1.1289-7.7656 2.7578-11.543 4.8438-0.29297-0.96484-0.62109-1.9219-0.96094-2.8828 3.7656-2.0898 7.9766-3.9023 12.578-5.4102 8.4531-2.7617 16.363-4.9688 23.34-6.9062 15.273-4.2422 27.5-7.6406 34.418-14.188-0.054688 1.2109-0.29297 2.4336-0.79688 3.6172zm-73.699-9.9102c12.809-4.6875 23.98-7.8047 32.973-10.309 16.273-4.5352 28.16-7.8477 34.234-16.621 0.14844 0.82813 0.17188 1.7148 0.003906 2.6172-0.83203 4.4961-6.1562 8.8477-15.41 12.578-7.543 3.0547-16.215 5.5312-24.594 7.9375-12.965 3.7031-26.277 7.5234-36.82 13.723-1.1641-1.3164-2.3945-2.6172-3.6719-3.8867 3.9258-2.2227 8.3633-4.2344 13.285-6.0391zm-273.27-11.938c6.1602 7.8008 17.41 10.949 32.562 15.18 9.1914 2.5625 20.629 5.7578 33.836 10.727 4.6758 1.7617 8.9492 3.7422 12.785 5.9141-0.89844 1.4336-1.7461 2.8945-2.5273 4.3711-10.641-6.4141-24.219-10.309-37.426-14.086-8.3867-2.4062-17.055-4.8828-24.602-7.9336-6.2031-2.5-10.633-5.2852-13.137-8.1992zm57.066 39.336c5.7383 1.875 10.852 4.2305 15.27 7.0039-0.31641 0.96094-0.60938 1.9414-0.88281 2.9219-4.6523-2.9023-9.4375-5.0703-14.312-6.4844-7.7617-2.2539-14.012-4.0898-19.531-5.7148-11.711-3.4375-18.777-5.5117-24.906-7.0078-6.6953-1.6445-10.93-4.3945-12.578-8.168-0.51953-1.1953-0.76172-2.4336-0.82031-3.6484 6.918 6.5508 19.148 9.9453 34.418 14.188 6.9805 1.9453 14.883 4.1523 23.344 6.9102zm-50.461-54.332c6.082 8.7695 17.957 12.082 34.234 16.617 8.9805 2.5 20.16 5.6211 32.973 10.309 5.7969 2.125 10.926 4.5508 15.336 7.2344-1.2578 1.2969-2.4531 2.6289-3.6055 3.9766-10.844-6.9844-25.086-11.059-38.934-15.016-8.3867-2.4062-17.059-4.8828-24.605-7.9375-9.2148-3.7188-14.539-8.0508-15.402-12.531-0.17578-0.91016-0.15234-1.8047 0.003907-2.6523zm-9.5859 52.211c-0.11328-0.20703-0.22266-0.41016-0.31641-0.60938 7.2461 4.7305 18.121 7.5742 30.625 10.836 11.613 3.0352 24.773 6.4648 36.902 12.059 1.7695 0.82031 3.4805 1.7812 5.125 2.8594-0.03125 0.59375-0.050782 1.1953-0.0625 1.793-13.152-4.9492-29.578-8.7031-44.496-11.801-14.352-2.9727-23.961-8.2148-27.777-15.137zm48.398 36.172c-12.004-3.5625-24.312-7.2109-30.781-12.949 13.164 2.6562 38.094 8.5391 56.016 17.879 0.33984 1.5742 0.73828 3.1406 1.2031 4.6875-7.5781-4.0195-17.098-6.8398-26.438-9.6172zm129.73 56.172c-24.734 0-47.902-6.9414-65.234-19.543-16.617-12.086-25.766-27.922-25.766-44.598s9.1484-32.516 25.766-44.598c17.332-12.602 40.5-19.543 65.234-19.543 24.738 0 47.902 6.9414 65.23 19.543 16.617 12.082 25.766 27.922 25.766 44.598s-9.1562 32.512-25.766 44.598c-17.324 12.605-40.492 19.543-65.23 19.543zm126.5-56.172c-7.8555 2.3359-15.832 4.7031-22.684 7.7969 0.41016-1.5391 0.75391-3.0859 1.0469-4.6562 17.531-8.3047 40.113-13.602 52.41-16.082-6.4648 5.7305-18.77 9.3828-30.773 12.941zm48.48-36.324c-3.7656 7.0039-13.395 12.289-27.855 15.293-13.676 2.8398-28.703 6.25-41.285 10.645-0.039062-0.83984-0.089844-1.668-0.15625-2.4961 0.66406-0.35156 1.332-0.69141 2.0078-1.0039 12.133-5.5938 25.289-9.0234 36.906-12.059 12.508-3.2617 23.375-6.1055 30.625-10.836-0.082031 0.15625-0.16406 0.30859-0.24219 0.45703z"/>
 </g>
</svg>
