<?xml version="1.0" encoding="UTF-8"?>
<svg width="752pt" height="752pt" version="1.1" viewBox="0 0 752 752" xmlns="http://www.w3.org/2000/svg">
 <defs>
  <clipPath id="a">
   <path d="m197 139.21h358v473.58h-358z"/>
  </clipPath>
 </defs>
 <g clip-path="url(#a)">
  <path d="m526.46 325.79c-0.44141-0.47266-0.88672-0.94531-1.3359-1.4141-0.45312-0.46484-0.90625-0.92969-1.3672-1.3906l2.7539 2.7539c-0.46094-0.46094-0.92188-0.91406-1.3867-1.3633-0.46875-0.45312-0.94141-0.89844-1.418-1.3398-40.988-38.09-105.11-37.199-144.99 2.6914l-2.7188 2.7148-2.7148-2.7148c-39.887-39.891-104.01-40.781-144.99-2.6914-0.47656 0.44141-0.94922 0.88672-1.418 1.3398-0.46484 0.44922-0.92969 0.90234-1.3867 1.3633l2.7539-2.7539c-0.46094 0.46094-0.91797 0.92578-1.3672 1.3906-0.44922 0.46875-0.89844 0.94141-1.3398 1.4141-38.109 41.004-37.234 105.07 2.6914 144.99l137.93 137.93c5.4375 5.4414 14.258 5.4414 19.699 0l137.93-137.93c39.926-39.926 40.801-103.99 2.6875-144.99zm-172.88 19.633 12.566 12.566c5.4375 5.4414 14.258 5.4414 19.699 0l12.566-12.566c29.469-29.469 76.977-29.914 107.01-1.3438 28.59 30.051 28.156 77.5-1.3477 107.01l-128.08 128.07-128.07-128.07c-29.504-29.508-29.941-76.957-1.3477-107.01 30.031-28.57 77.539-28.125 107.01 1.3438zm22.414-94.785c76.891 0 139.29-20.797 139.29-55.715 0-34.914-62.398-55.715-139.29-55.715s-139.29 20.801-139.29 55.715c0 34.918 62.395 55.715 139.29 55.715zm0-27.855c-32.285 0-62.402-4.2461-84.238-11.523-10.02-3.3438-17.77-7.168-22.648-11.012-3.418-2.6914-4.543-4.5273-4.543-5.3242s1.125-2.6328 4.543-5.3242c4.8789-3.8438 12.629-7.668 22.648-11.008 21.836-7.2773 51.953-11.523 84.238-11.523 32.289 0 62.406 4.2461 84.238 11.523 10.02 3.3398 17.773 7.1641 22.648 11.008 3.418 2.6914 4.5469 4.5273 4.5469 5.3242s-1.1289 2.6328-4.5469 5.3242c-4.875 3.8438-12.629 7.668-22.648 11.012-21.832 7.2773-51.949 11.523-84.238 11.523z" fill="#676767" fill-rule="evenodd"/>
 </g>
</svg>
