<?xml version="1.0" encoding="UTF-8"?>
<svg width="752pt" height="752pt" version="1.1" viewBox="0 0 752 752" xmlns="http://www.w3.org/2000/svg">
 <g fill="#676767">
  <path d="m479.45 357.69c-7.9102-38.906-20.051-76.719-57.043-96.719-29.328-15.855-66.848-18.961-97.883-6.2305-1.7031 0.69922-3.3906 1.4453-5.0547 2.2383-68.512 32.688-74.68 135.05-39.383 194 2.2695 3.7891 5.9023 8.6719 5.8672 13.301 0 0.023438 0.035156 92.191 0.035156 92.191h125.73v-60.562c38.262 5.2852 58.789-8.1719 58.789-8.1719l2.4492-53.734 27.59-4.0391c-1.7773 0.25781-19.777-65.793-21.094-72.273zm-49.809 23.113c-6.5391 0-11.84-5.3008-11.84-11.84 0-6.5391 5.3008-11.84 11.84-11.84s11.84 5.3008 11.84 11.84c-0.003907 6.5391-5.3047 11.84-11.84 11.84z"/>
  <path d="m359.21 186.57h14.207v40.543h-14.207z"/>
  <path d="m310.55 205.63 13.129 28.156-12.875 6.0039-13.129-28.156z"/>
  <path d="m247.07 231.55 33.793 27.223-8.9102 11.062-33.793-27.223z"/>
  <path d="m248.07 311.14-30.07-11.371 5.0234-13.289 30.07 11.371z"/>
  <path d="m511.91 297.4-30.07 11.371-5.0234-13.289 30.07-11.371z"/>
  <path d="m422.51 205.63 12.875 6.0039-13.129 28.16-12.875-6.0039z"/>
  <path d="m481.96 233.99 9.0938 10.918-29.848 24.855-9.0938-10.918z"/>
 </g>
</svg>
