<?xml version="1.0" encoding="UTF-8"?>
<svg width="752pt" height="752pt" version="1.1" viewBox="0 0 752 752" xmlns="http://www.w3.org/2000/svg">
 <g fill="#676767">
  <path d="m376 154.01c-58.875 0-115.34 23.387-156.97 65.02-41.633 41.629-65.02 98.094-65.02 156.97 0 58.879 23.387 115.34 65.02 156.97 41.629 41.633 98.094 65.02 156.97 65.02 58.879 0 115.34-23.387 156.97-65.02 41.633-41.633 65.02-98.094 65.02-156.97 0-38.965-10.258-77.246-29.742-110.99-19.484-33.75-47.508-61.773-81.254-81.258-33.746-19.48-72.027-29.738-111-29.738zm0 424.67c-53.754 0-105.3-21.355-143.31-59.363-38.012-38.008-59.363-89.562-59.363-143.32s21.352-105.3 59.363-143.31c38.008-38.012 89.559-59.363 143.31-59.363s105.31 21.352 143.32 59.363c38.008 38.008 59.363 89.559 59.363 143.31-0.058594 53.738-21.43 105.25-59.43 143.25-37.996 38-89.512 59.371-143.25 59.43z"/>
  <path d="m376 192.64c-48.629 0-95.27 19.32-129.66 53.707s-53.707 81.027-53.707 129.66c0 48.633 19.32 95.273 53.707 129.66 34.387 34.387 81.027 53.707 129.66 53.707 48.633 0 95.273-19.32 129.66-53.707 34.387-34.387 53.707-81.027 53.707-129.66-0.039063-48.617-19.371-95.234-53.75-129.61-34.379-34.379-80.996-53.711-129.62-53.75zm0 347.79c-43.488 0-85.195-17.266-115.96-48.004-30.762-30.742-48.059-72.438-48.094-115.92-0.03125-43.488 17.203-85.211 47.922-116 30.715-30.785 72.398-48.113 115.88-48.18 43.488-0.066406 85.223 17.141 116.03 47.832s48.168 72.363 48.27 115.85c-0.042969 43.5-17.336 85.203-48.094 115.96-30.758 30.758-72.461 48.051-115.96 48.094z"/>
  <path d="m385.62 250.21c-7.6602 0-15.004 3.0312-20.438 8.4297-5.4336 5.3984-8.5117 12.727-8.5625 20.383-0.050782 7.6602 2.9297 15.027 8.2891 20.496s12.668 8.5977 20.324 8.7031c7.6562 0.10156 15.047-2.8281 20.551-8.1484 5.5078-5.3242 8.6875-12.609 8.8438-20.266 0.15625-7.793-2.8281-15.324-8.2852-20.895-5.457-5.5664-12.926-8.707-20.723-8.7031zm0 38.625c-5.0078-0.4375-8.8477-4.6289-8.8477-9.6562 0-5.0234 3.8398-9.2188 8.8477-9.6562 2.707-0.23828 5.3906 0.67188 7.3945 2.5078 2.0039 1.8359 3.1445 4.4297 3.1445 7.1484s-1.1406 5.3125-3.1445 7.1484c-2.0039 1.8359-4.6875 2.7461-7.3945 2.5078z"/>
  <path d="m399.38 462.95c-2.1641-2.1797-3.1758-5.25-2.7344-8.2891l13.836-89.906c1.6719-10.633-2.1094-21.395-10.062-28.648-7.9531-7.2539-19.016-10.031-29.453-7.3867l-35.887 8.9531c-3.3398 0.86719-5.9648 3.4453-6.8945 6.7695-0.92969 3.3203-0.023438 6.8867 2.3789 9.3594l12.359 12.359c2.1836 2.1641 3.2031 5.2461 2.7383 8.2891l-14.062 90.348c-1.3711 9.2539 1.3398 18.648 7.4297 25.746 6.0898 7.0977 14.965 11.203 24.316 11.254 2.6172-0.019531 5.2266-0.34375 7.7695-0.96094l35.961-9.0273h0.003906c3.3672-0.85547 6.0195-3.4492 6.9531-6.7969 0.92969-3.3477 0-6.9375-2.4414-9.4102zm-7.918-101.16-13.836 89.906c-1.4023 9.1328 1.6172 18.391 8.1406 24.938l-19.387 4.8828c-4.582 1.1367-9.418-0.34375-12.582-3.8477-2.4844-2.8047-3.5742-6.5859-2.957-10.285l13.91-89.906c1.4141-9.1094-1.6094-18.352-8.1406-24.863l-0.37109-0.37109 19.758-4.8086c4.7188-1.1992 9.707 0.37891 12.875 4.0703 2.2852 2.9062 3.2266 6.6445 2.5898 10.285z"/>
 </g>
</svg>
