<?xml version="1.0" encoding="UTF-8"?>
<svg width="752pt" height="752pt" version="1.1" viewBox="0 0 752 752" xmlns="http://www.w3.org/2000/svg">
 <g fill="#676767">
  <path d="m595.07 259.12c-2.0977-1.5977-4.8867-1.9531-7.3281-0.9375l-175.2 72.996-120-34.297-31.02-122.48c-0.48828-1.9414-1.7461-3.5977-3.4766-4.5977-1.7383-1-3.8008-1.2539-5.7188-0.70703l-41.145 11.695c-3.8516 1.0938-6.1289 5.0547-5.1484 8.9336l22.512 88.898-20.699-5.9258c-2.0039-0.57812-4.1602-0.28125-5.9258 0.82031-1.7734 1.0898-3.0039 2.8828-3.3867 4.9336l-44.398 236.79c-0.70312 3.7578 1.5664 7.4297 5.2383 8.4844l207.19 59.199c0.66797 0.1875 1.3516 0.28125 2.0352 0.28125 0.8125 0 1.6094-0.17578 2.3789-0.44141 0.089843-0.03125 0.1875-0.015625 0.27734-0.050781l192.39-73.996c2.5469-0.98438 4.3516-3.2812 4.6875-5.9922l29.598-236.79c0.33203-2.6172-0.76172-5.2109-2.8594-6.8086zm-297.9 177 10.082-2.8633-4.3086 22.293-14.273-17.012zm-48.125-250.7 30.16 119.1c0.011719 0.042969 0.003907 0.085937 0.015625 0.125l28.645 113.05-26.898 7.6445-34.91-137.88c0-0.007813-0.007813-0.015626-0.007813-0.023438l-23.902-94.383zm-37.465 103.75 21.168 6.0625 35.738 141.13c0.023438 0.089844 0.09375 0.15625 0.11719 0.24609 0.22266 0.75781 0.5625 1.4727 1.0234 2.1328 0.085938 0.12109 0.14453 0.25 0.23828 0.36719 0.046874 0.0625 0.074218 0.13672 0.125 0.19531l31.598 37.664c1.4258 1.6992 3.5117 2.6445 5.668 2.6445 0.61719 0 1.2383-0.078125 1.8555-0.23828 2.7617-0.71484 4.8672-2.957 5.4102-5.7578l8.3867-43.367 35.949 11.984c0.77734 0.26172 1.5664 0.38281 2.3398 0.38281 3.1016 0 5.9883-1.957 7.0195-5.0586 1.293-3.8789-0.80078-8.0703-4.6797-9.3594l-41.234-13.746-11.375-44.926 40.527 13.508c0.77734 0.26172 1.5664 0.37891 2.3398 0.37891 3.1016 0 5.9883-1.957 7.0195-5.0586 1.293-3.875-0.80078-8.0664-4.6797-9.3633l-44.398-14.801c-1.5938-0.53125-3.1914-0.37109-4.6641 0.125l-10.34-40.836 107.74 30.793-41.66 222.19-192.89-55.109zm342.62 207.32-175.88 67.652 41.219-219.84 162.13-67.555z"/>
  <path d="m435.2 383.4c0.86328 0 1.7422-0.15234 2.5977-0.46875l118.39-44.398c3.8281-1.4375 5.7656-5.7031 4.332-9.5273-1.4375-3.8281-5.6992-5.7422-9.5273-4.332l-118.39 44.398c-3.8281 1.4375-5.7656 5.7031-4.332 9.5273 1.1172 2.9688 3.9336 4.8008 6.9297 4.8008z"/>
  <path d="m420.87 437.8c1.1172 2.9688 3.9336 4.7969 6.9297 4.7969 0.86328 0 1.7422-0.15234 2.5977-0.46875l118.39-44.398c3.8281-1.4375 5.7656-5.7031 4.332-9.5312-1.4375-3.8242-5.6953-5.75-9.5273-4.3281l-118.39 44.398c-3.8281 1.4375-5.7656 5.6992-4.332 9.5312z"/>
  <path d="m528.8 443.07-118.39 44.398c-3.8281 1.4375-5.7656 5.7031-4.332 9.5312 1.1172 2.9688 3.9336 4.7969 6.9297 4.7969 0.86328 0 1.7422-0.15234 2.5977-0.46875l118.39-44.398c3.8281-1.4375 5.7656-5.7031 4.332-9.5312-1.4375-3.8281-5.6992-5.7344-9.5273-4.3281z"/>
  <path d="m333.95 502.18-88.797-29.598c-3.8828-1.3086-8.0664 0.80078-9.3633 4.6758-1.293 3.8789 0.80078 8.0703 4.6797 9.3594l88.797 29.598c0.77734 0.26172 1.5664 0.38281 2.3398 0.38281 3.1016 0 5.9883-1.957 7.0195-5.0586 1.2969-3.8828-0.80078-8.0742-4.6758-9.3594z"/>
 </g>
</svg>
