<?xml version="1.0" encoding="UTF-8"?>
<svg width="752pt" height="752pt" version="1.1" viewBox="0 0 752 752" xmlns="http://www.w3.org/2000/svg">
 <g fill="#676767">
  <path d="m376 309.4c-36.719 0-66.598 29.879-66.598 66.598 0 36.727 29.879 66.598 66.598 66.598 36.727 0 66.598-29.871 66.598-66.598 0-36.715-29.871-66.598-66.598-66.598z"/>
  <path d="m553.89 376c0-6.875 1.5977-14.148 3.2852-21.852 2.7227-12.418 5.543-25.254 1.5625-37.523-4.1602-12.809-14.207-21.66-23.922-30.215-5.707-5.0312-11.105-9.7812-14.887-14.977-3.8555-5.3047-6.7617-11.973-9.8359-19.031-5.1289-11.801-10.441-24.004-21.172-31.82-10.625-7.7266-23.82-9.0273-36.578-10.277-7.7188-0.76172-15.008-1.4727-21.355-3.5352-5.9648-1.9297-12.055-5.5508-18.5-9.3672-11.195-6.6367-22.77-13.496-36.488-13.496s-25.301 6.8672-36.496 13.504c-6.4453 3.8242-12.535 7.4297-18.5 9.3672-6.3398 2.0664-13.637 2.7734-21.355 3.5352-12.766 1.25-25.957 2.5469-36.578 10.277-10.73 7.8125-16.035 20.016-21.172 31.82-3.0703 7.0586-5.9727 13.734-9.8359 19.031-3.7812 5.2031-9.1836 9.9531-14.895 14.984-9.7148 8.5547-19.758 17.402-23.914 30.215-3.9805 12.27-1.1602 25.105 1.5625 37.523 1.6992 7.6875 3.2969 14.965 3.2969 21.836 0 6.875-1.5977 14.148-3.2852 21.852-2.7305 12.418-5.5508 25.254-1.5625 37.523 4.1602 12.801 14.207 21.66 23.922 30.215 5.7109 5.0312 11.105 9.7734 14.887 14.969 3.8555 5.3047 6.7617 11.973 9.8359 19.031 5.1289 11.801 10.441 24.004 21.172 31.82 10.625 7.7344 23.828 9.0273 36.586 10.277 7.7188 0.76172 15.008 1.4727 21.348 3.5352 5.957 1.9375 12.047 5.543 18.492 9.3672 11.203 6.6367 22.785 13.504 36.504 13.504s25.301-6.8672 36.504-13.504c6.4453-3.8242 12.527-7.4297 18.484-9.3672 6.3398-2.0586 13.637-2.7734 21.355-3.5352 12.766-1.25 25.965-2.5469 36.578-10.277 10.738-7.8125 16.043-20.016 21.18-31.82 3.0703-7.0586 5.9727-13.727 9.8281-19.023 3.7891-5.2031 9.1758-9.9609 14.895-14.984 9.707-8.5547 19.766-17.402 23.914-30.207 3.9805-12.27 1.1602-25.113-1.5625-37.531-1.6992-7.7031-3.2969-14.969-3.2969-21.844zm-11.168 25.02c2.4062 10.973 4.6836 21.34 1.9375 29.793-2.9062 8.9453-11.027 16.102-19.625 23.664-6.0586 5.3438-12.328 10.863-17.078 17.383-4.8086 6.6211-8.1758 14.355-11.434 21.836-4.543 10.449-8.8359 20.312-16.316 25.75-7.3633 5.3633-18.031 6.4062-29.316 7.5195-8.168 0.80078-16.605 1.6289-24.477 4.1797-7.5273 2.4414-14.613 6.6445-21.465 10.707-9.9141 5.8828-19.285 11.441-28.949 11.441s-19.031-5.5586-28.953-11.441c-6.8516-4.0625-13.941-8.2656-21.465-10.707-7.8672-2.5586-16.316-3.3828-24.477-4.1797-11.293-1.1016-21.953-2.1523-29.324-7.5195-7.4727-5.4375-11.766-15.301-16.309-25.75-3.2578-7.4805-6.6211-15.223-11.434-21.836-4.7422-6.5117-11.012-12.031-17.078-17.375-8.5977-7.5703-16.723-14.727-19.633-23.672-2.7461-8.4492-0.46484-18.816 1.9453-29.785 1.7891-8.1406 3.6367-16.547 3.6367-25.027s-1.8516-16.895-3.6328-25.027c-2.4062-10.965-4.6836-21.332-1.9375-29.777 2.9062-8.9453 11.027-16.102 19.625-23.672 6.0664-5.3438 12.336-10.863 17.078-17.383 4.8164-6.6172 8.1758-14.355 11.434-21.844 4.543-10.449 8.8281-20.312 16.309-25.75 7.3711-5.3633 18.031-6.4062 29.316-7.5195 8.168-0.80078 16.613-1.6289 24.484-4.1875 7.5273-2.4414 14.613-6.6445 21.473-10.715 9.9102-5.8633 19.277-11.422 28.941-11.422 9.6562 0 19.016 5.5508 28.941 11.434 6.8594 4.0625 13.957 8.2734 21.473 10.715 7.8672 2.5547 16.309 3.3828 24.477 4.1797 11.285 1.1094 21.953 2.1523 29.316 7.5195 7.4805 5.4375 11.773 15.301 16.309 25.75 3.2578 7.4805 6.6289 15.223 11.441 21.836 4.7422 6.5195 11.012 12.031 17.078 17.375 8.5977 7.5703 16.723 14.727 19.625 23.68 2.7461 8.4492 0.46484 18.809-1.9375 29.785-1.7812 8.1328-3.6328 16.543-3.6328 25.023s1.8438 16.887 3.6328 25.02z"/>
 </g>
</svg>
