<?xml version="1.0" encoding="UTF-8"?>
<svg width="752pt" height="752pt" version="1.1" viewBox="0 0 752 752" xmlns="http://www.w3.org/2000/svg">
 <path d="m327.79 173.25c-1.0352-0.003906-2.0703 0.12891-3.0742 0.39453-3.0078 0.79297-5.582 2.7383-7.168 5.4141-1.6055 2.7109-2.0664 5.9492-1.2773 9 0.78906 3.0547 2.7656 5.6641 5.4844 7.2539l23.609 13.875c-17.449 2.9336-34.16 8.293-49.715 15.793-0.039063 0.015625-0.078126 0.035156-0.11719 0.050781l-2.3594 1.1328c-0.17969 0.085938-0.35938 0.17969-0.53125 0.27734l-0.90234 0.46484c-1.2148 0.62109-2.4297 1.2734-3.6289 1.918l-2.4492 1.2969-0.003906-0.003906c-0.17969 0.082031-0.35938 0.16797-0.53125 0.25781l-6.7305 3.9297c-0.14844 0.11328-0.29688 0.23047-0.44141 0.34766l-6.4766 4.207 0.003907 0.003906c-0.19141 0.15625-0.375 0.31641-0.55469 0.48438-15.129 10.406-28.672 23.02-40.168 37.438-0.19531 0.24609-0.38672 0.49609-0.57812 0.73828l-1.25 1.5273h0.003906c-0.12109 0.14453-0.23438 0.28906-0.34766 0.4375l-1.8047 2.4531-2.8438 3.8398c-0.12109 0.17188-0.23438 0.35156-0.34766 0.53125l-1.3633 2.0352-3.0078 4.4414v-0.003906c-0.11719 0.16797-0.23438 0.33984-0.34375 0.51172l-3.7461 6.2891c-0.066406 0.14453-0.12891 0.28906-0.1875 0.4375-9.5156 16.559-16.613 34.781-20.719 54.273-0.046875 0.20703-0.070312 0.41797-0.11719 0.625l-0.30078 1.3164c-0.035157 0.16797-0.066407 0.33984-0.09375 0.50781l-0.27734 1.5508c-0.003906 0.011719 0.003906 0.035156 0 0.050781-0.32031 1.7031-0.60547 3.4062-0.87891 5.1094l-0.25391 1.4336c-0.03125 0.19922-0.054687 0.39844-0.074219 0.60156l-0.023437 0.16016c-0.30469 2.0742-0.57422 4.1445-0.80859 6.2188l-0.23047 1.8281c-0.039062 0.20703-0.070312 0.41406-0.09375 0.625l-0.25391 3.4922c-0.023437 0.22266-0.046875 0.44922-0.070312 0.66797l-0.023438 0.46484c-1.3828 18.582 0.070313 36.988 4.0703 54.664 0.003906 0.011719-0.003907 0.035157 0 0.050781h-0.003907c0.003907 0.14453 0.011719 0.29297 0.023438 0.4375l0.09375 0.25391c0.027344 0.17969 0.0625 0.35547 0.097656 0.53125l2.0117 7.6992v0.003906c0.027344 0.19922 0.058594 0.39844 0.09375 0.60156l2.3594 7.5156v-0.003906c0.058594 0.17969 0.11719 0.35938 0.18359 0.53516l2.6133 7.4219c0.082031 0.17969 0.16406 0.35547 0.25391 0.53125l0.71484 1.918h0.003906c0.058594 0.11719 0.12109 0.23438 0.18359 0.35156 6.7188 16.879 15.895 32.711 27.219 46.988h-0.003906c0.070312 0.125 0.13672 0.24609 0.21094 0.37109l0.53125 0.625v-0.003906c0.11328 0.14844 0.22656 0.29688 0.34766 0.44141l1.5039 1.7578c1.168 1.4062 2.3516 2.8125 3.5625 4.1836 0.011719 0.011719 0.011719 0.035156 0.023437 0.050781h-0.003906c0.10547 0.13281 0.21484 0.26172 0.32422 0.39062l1.3633 1.4805c0.98828 1.0898 1.9922 2.168 3.0078 3.2383 0.29297 0.30859 0.58594 0.62109 0.87891 0.92578l0.09375 0.11719v-0.003906c0.13672 0.15234 0.27344 0.29687 0.41797 0.44141l0.99609 0.97266c1.4844 1.5039 2.9961 2.9844 4.5312 4.4414 0.058594 0.058594 0.12109 0.125 0.18359 0.18359v-0.003906c0.082031 0.085937 0.16797 0.17188 0.25391 0.25391l0.53125 0.48438c13.508 12.617 29.059 23.352 46.363 31.656v0.003906c0.007813 0.007813 0.015626 0.015625 0.023438 0.023438l0.11719 0.050781c1.7227 0.82422 3.4688 1.6289 5.2266 2.4062 1.2539 0.55469 2.5078 1.0938 3.7695 1.6172 0.035157 0.011718 0.082031 0.035156 0.11719 0.050781l0.20703 0.09375 0.003906-0.003907c0.20703 0.089844 0.41406 0.17578 0.625 0.25391l0.64844 0.25391c2.2617 0.91797 4.5391 1.793 6.8203 2.6133l0.046875 0.023438c0.007813 0.003906 0.011719-0.003906 0.023438 0 20.766 7.4648 42.25 11.012 63.523 10.914 1.4961-0.007812 2.9922-0.023437 4.4844-0.070312l1.0156-0.023438c0.20312 0.003906 0.40234 0.003906 0.60156 0l1.5039-0.09375c2.1523-0.09375 4.3086-0.24609 6.4531-0.41797 0.035156-0.003907 0.082031 0.003906 0.11719 0v0.003906h0.50781l2.082-0.23438c1.9531-0.1875 3.9062-0.39844 5.8516-0.64844h0.046875c0.16406 0.003907 0.32422 0.003907 0.48438 0l2.1523-0.34766c0.76953-0.10547 1.543-0.22656 2.3125-0.34766v-0.003907c0.10937-0.019531 0.21484-0.042968 0.32422-0.070312 20.621-3.2266 40.621-9.8945 59.105-19.77 2.3047-1.2305 4.5664-2.5078 6.8203-3.8398 2.1562-1.2734 4.2969-2.5938 6.4062-3.9531 0.22266-0.14453 0.44922-0.27344 0.67187-0.41797h-0.003906c0.14844-0.097656 0.29688-0.19531 0.44141-0.30078 0.035157-0.023438 0.058594-0.050781 0.09375-0.070312 18.262-11.992 34.613-27.348 48.074-45.809 0.023438-0.023438 0.046875-0.050782 0.070313-0.070313 0.12109-0.14453 0.23438-0.28906 0.34766-0.4375l0.34766-0.50781 4.1172-6.0352v-0.003906c0.11719-0.17578 0.23438-0.35156 0.34375-0.53125l4.2773-6.7344c0.097656-0.17578 0.19141-0.35547 0.27734-0.53125l1.4805-2.6133c1.6523-2.9844 2.0586-6.5 1.1328-9.7812-0.92969-3.3086-3.1328-6.1133-6.1289-7.793-6.2266-3.5156-14.121-1.3203-17.641 4.9023l-1.3164 2.3594-3.8398 6.1953-3.7695 5.4336c-0.37109 0.51562-0.73438 1.0156-1.1094 1.5273l-3.1211 4.1172-0.30078 0.39453c-10.004 12.629-21.641 23.41-34.41 32.234v-0.003906c-0.125 0.058593-0.24609 0.12109-0.37109 0.18359l-2.9844 2.0117-6.1055 3.8398-6.3125 3.4922-5.4102 2.7969h0.003906c-0.023437 0.015625-0.050781 0.03125-0.074218 0.050782-14.32 6.9297-29.59 11.68-45.277 14.105-0.035156 0.003906-0.058594-0.003906-0.09375 0l-2.8438 0.4375c-0.75 0.10547-1.4883 0.21094-2.2422 0.30078-0.082031 0.011718-0.16797 0.011718-0.25391 0.023437l-3.8633 0.41797c-1.4023 0.13281-2.8008 0.22656-4.207 0.32031l-5.3867 0.25391-5.25 0.09375c-0.085938 0.015626-0.17188 0.03125-0.25391 0.050782-15.445 0.007812-31.016-2.2422-46.246-6.8438h-0.003907c-0.10547-0.039063-0.21484-0.078125-0.32422-0.11719l-5.875-1.875c-1.3516-0.46875-2.6992-0.97266-4.0469-1.4805l-2.8906-1.1328c-0.70703-0.28125-1.4258-0.5625-2.1289-0.85547-0.41797-0.17578-0.83203-0.35156-1.25-0.53125l-3.4922-1.5273c-15.582-7.0742-29.582-16.379-41.711-27.426-0.039062-0.039062-0.078124-0.078125-0.11719-0.11719-0.023437-0.023438-0.058594-0.050782-0.09375-0.070313-0.21094-0.22266-0.42578-0.4375-0.64844-0.64844l-1.0391-0.97266-5.1562-5.0625-4.9023-5.3203-4.625-5.5273-0.34766-0.4375v0.003907c-0.12109-0.12891-0.24609-0.25-0.37109-0.37109-9.6875-12.152-17.547-25.633-23.332-40.004-0.011719-0.023438-0.011719-0.058594-0.023438-0.09375v-0.003907c-0.11328-0.375-0.24609-0.74219-0.39453-1.1094l-0.41406-0.87891c-0.023438-0.070312-0.046875-0.14062-0.070313-0.21094-0.25-0.64844-0.5-1.2891-0.73828-1.9414l-1.7812-5.0859-0.14062-0.37109-0.11719-0.39453-1.9414-6.4297-0.09375-0.32031-1.7344-6.7539-0.046875-0.18359c-3.5352-15.309-4.8359-31.266-3.6758-47.402h-0.003906c0.035156-0.12891 0.066406-0.26172 0.09375-0.39453l0.34766-4.3711 0.97266-7.6094 0.94922-5.875c0.011719-0.085938 0.035156-0.17188 0.046875-0.25391 0.20312-1.0742 0.42188-2.1406 0.64844-3.2148 3.5312-16.75 9.5977-32.418 17.734-46.641 0.003906-0.007813 0.023437-0.011719 0.023437-0.023437l3.6523-6.0352 4.0234-6.0352 4.2773-5.8516 1.6641-2.0117 0.003907 0.003906c0.32422-0.41406 0.625-0.84375 0.89844-1.2969 9.6992-11.961 21.082-22.434 33.719-31.125 0.058594-0.027344 0.12109-0.058594 0.18359-0.09375l6.1055-4.0234 6.082-3.6055 0.11719-0.070313 0.18359-0.09375 6.2891-3.3086 2.1055-0.97266c0.45313-0.21875 0.89453-0.46484 1.3164-0.73828 13.344-6.2969 27.672-10.766 42.617-13.18l-19.031 21.715 0.003906-0.003906c-4.3164 4.9023-3.8516 12.371 1.0391 16.695 4.9062 4.3125 12.375 3.8359 16.695-1.0625l41.438-47.195c2.3203-2.6484 3.3359-6.1953 2.7773-9.6719-0.55859-3.4766-2.6328-6.5273-5.668-8.3164l-54.109-31.82c-1.7969-1.0508-3.8398-1.6094-5.918-1.6172zm114.67 47.129c-4.5898 0.46484-8.5898 3.3359-10.496 7.5391-2.9453 6.5117-0.058594 14.18 6.4531 17.133l6.6602 3.0508-0.003906 0.003907c6.5078 2.9258 14.16 0.042969 17.113-6.4531 1.418-3.1523 1.5156-6.7383 0.27734-9.9648-1.1953-3.2148-3.6133-5.8281-6.7305-7.2617l-6.6602-2.9609c-2.0703-0.93359-4.3516-1.3086-6.6133-1.0859zm50.273 31.75c-3.4414 0.11719-6.6953 1.5977-9.043 4.1133-2.3516 2.5156-3.6094 5.8594-3.4922 9.3008 0.11719 3.4375 1.5977 6.6914 4.1172 9.0391l3.8398 3.5859 5.0625 5.1562 4.9023 5.5273 2.707 3.3086v-0.003906c2.1641 2.6836 5.3047 4.3945 8.7344 4.7539s6.8594-0.66016 9.5312-2.8359c2.668-2.1641 4.3633-5.3008 4.7188-8.7188v-0.023438c0.33594-3.4258-0.70312-6.8438-2.8906-9.5039l-2.8672-3.5859v0.003906c-0.14453-0.14844-0.28906-0.29688-0.4375-0.4375l-5.1602-5.875c-0.14062-0.15234-0.28906-0.29688-0.4375-0.4375l-5.5039-5.668c-0.14062-0.14844-0.28906-0.29688-0.4375-0.4375l-4.0234-3.7695c-2.5195-2.3594-5.875-3.6133-9.3203-3.4922zm-126.58 49.809c-3.1445-0.011719-6.1641 1.2266-8.3945 3.4414-2.2266 2.2188-3.4844 5.2305-3.4922 8.375v117.29c0.03125 4.8086 2.9648 9.1211 7.4258 10.914l67.914 27.539v0.003906c2.9219 1.1914 6.1992 1.168 9.1016-0.0625 2.9062-1.2344 5.1992-3.5781 6.3672-6.5078 2.4258-6.0586-0.51172-12.938-6.5664-15.375l-60.562-24.559v-109.24c-0.011718-6.5117-5.2812-11.793-11.793-11.816zm169.41 13.828c-1.1133 0.12109-2.2109 0.38281-3.2578 0.78516-6.6562 2.5703-9.9805 10.031-7.4453 16.695l2.0117 5.3203 2.2656 6.9141 2.0117 6.8906 0.87891 3.9297c0.78906 3.3594 2.8867 6.2617 5.8281 8.0664 2.9375 1.8047 6.4727 2.3633 9.8242 1.5547 6.9492-1.6523 11.25-8.6094 9.6211-15.562l-0.97266-4.1875c-0.054688-0.20703-0.11719-0.41406-0.18359-0.62109l-2.1719-7.5156c-0.058594-0.17188-0.12109-0.33984-0.1875-0.51172l-2.4492-7.4453c-0.050781-0.16797-0.10547-0.33984-0.16406-0.50781l-2.1953-5.5977c-2.1094-5.4453-7.6016-8.8047-13.414-8.207zm14.383 76.125h0.003906c-3.4336-0.3125-6.8516 0.75781-9.4922 2.9688-2.6445 2.2148-4.2969 5.3906-4.5938 8.8242l-0.60156 6.8203-0.97266 7.4219-1.3867 7.332-0.53125 2.1953h0.003906c-0.78125 3.3516-0.19531 6.8789 1.6289 9.7969 1.8203 2.918 4.7266 4.9961 8.082 5.7656 6.9453 1.6172 13.887-2.6836 15.539-9.6172l0.625-2.4531c0.035156-0.19922 0.066406-0.39844 0.09375-0.60156l1.4805-8.0469c0.035157-0.20703 0.066407-0.41406 0.09375-0.62109l1.1328-7.9336v-0.050782-0.023437-0.023438-0.070312-0.023438-0.023437-0.023438-0.074218-0.023438-0.023438-0.023437-0.070313-0.023437-0.023437-0.023438-0.074219-0.023437-0.023438l0.69531-7.1641c0.30469-3.4297-0.76953-6.8398-2.9805-9.4766-2.2109-2.6367-5.3828-4.2852-8.8125-4.582z" fill="#676767"/>
</svg>
