<?xml version="1.0" encoding="UTF-8"?>
<svg width="752pt" height="752pt" version="1.1" viewBox="0 0 752 752" xmlns="http://www.w3.org/2000/svg">
 <defs>
  <clipPath id="b">
   <path d="m199 146h413.79v460h-413.79z"/>
  </clipPath>
  <clipPath id="a">
   <path d="m139.21 327h41.789v279h-41.789z"/>
  </clipPath>
 </defs>
 <path d="m243.4 261.61h268.12v10.93h-268.12z" fill="#676767"/>
 <path d="m243.4 330.83h155.19v10.93h-155.19z" fill="#676767"/>
 <path d="m243.4 399.32h124.59v10.93h-124.59z" fill="#676767"/>
 <path d="m243.4 467.8h139.16v10.93h-139.16z" fill="#676767"/>
 <path d="m243.4 537.02h201.09v10.93h-201.09z" fill="#676767"/>
 <g clip-path="url(#b)">
  <path d="m571.99 146.5h-319.85-0.73047c-28.414 0-51.73 23.316-51.73 51.73v407.28h357.01l0.003906-99.09c24.043-18.215 40.07-47.359 40.07-80.145 0-32.785-16.027-61.93-40.07-80.145v-131.14h59.016v-5.1016s0.73047-11.656 0.73047-16.027c-0.003906-26.957-18.945-47.359-44.445-47.359zm13.844 279.78c0 48.816-40.07 88.887-88.887 88.887-48.816 0-88.887-40.07-88.887-88.887 0-48.816 40.07-88.887 88.887-88.887 48.812 0 88.887 40.07 88.887 88.887zm-40.074-86.703c-14.57-8.0156-31.328-13.113-48.816-13.113-55.371 0-99.816 44.445-99.816 99.816 0 55.371 44.445 99.816 99.816 99.816 17.484 0 34.242-4.3711 48.816-13.113v80.875h-335.15v-396.35c0-22.586 18.215-40.801 40.801-40.801 22.586 0.72656 40.801 18.941 40.801 41.527 0 2.9141-0.73047 7.2852-1.457 10.93l-1.457 5.8281 5.8281 0.73047h250.63zm59.746-134.79h-303.09c0-2.1875 0.73047-4.3711 0.73047-6.5586 0-16.758-8.0156-31.328-20.402-40.801h288.52c19.672 0 33.516 15.301 33.516 36.43 0.73047 2.9141 0.73047 7.2852 0.73047 10.93z" fill="#676767"/>
 </g>
 <path d="m502.05 362.89h-10.93v47.359c-6.5586 2.1875-11.656 8.7422-11.656 16.027 0 9.4727 7.2852 16.758 16.758 16.758 2.9141 0 5.1016-0.73047 7.2852-2.1875l22.586 22.586 8.0156-8.0156-22.586-22.586c1.457-2.1875 1.457-5.1016 1.457-7.2852 0-7.2852-5.1016-13.844-11.656-16.027zm-0.73047 67.758c-1.457 1.457-2.9141 2.1875-4.3711 2.1875-3.6445 0-5.8281-2.9141-5.8281-5.8281 0-3.6445 2.9141-5.8281 5.8281-5.8281 3.6445 0 5.8281 2.9141 5.8281 5.8281 0.003906 1.457 0.003906 2.9141-1.457 3.6406z" fill="#676767"/>
 <path d="m491.12 343.95h10.93v8.7422h-10.93z" fill="#676767"/>
 <path d="m441.19 378.52-6.1836-6.1797 7.7266-7.7305 6.1836 6.1797z" fill="#676767"/>
 <path d="m414.62 421.17h8.7422v10.93h-8.7422z" fill="#676767"/>
 <path d="m442.6 488.39-7.7266-7.7266 6.1836-6.1836 7.7266 7.7266z" fill="#676767"/>
 <path d="m491.12 499.86h10.93v8.7422h-10.93z" fill="#676767"/>
 <path d="m552.71 474.07 6.1797 6.1836-7.7305 7.7266-6.1797-6.1836z" fill="#676767"/>
 <path d="m570.54 421.17h8.7422v10.93h-8.7422z" fill="#676767"/>
 <path d="m551.51 363.99 7.7266 7.7266-6.1836 6.1836-7.7266-7.7266z" fill="#676767"/>
 <g clip-path="url(#a)">
  <path d="m139.21 367.99v217.85c0 10.926 8.7422 19.672 20.402 19.672 10.93 0 20.402-8.7422 20.402-20.402l-0.003906-217.12-20.402-40.07zm10.93 21.855h18.215v159.56l-18.215 0.003906zm9.4727 204.73c-5.1016 0-9.4727-4.3711-9.4727-9.4727v-24.773h18.215v24.773c0 5.1016-4.3711 9.4727-8.7422 9.4727zm8.7422-215.66h-18.215v-8.7422l9.4727-18.215 8.7422 18.215z" fill="#676767"/>
 </g>
</svg>
